<svg id="Beall_Investments_Horizontal_Solid_Color" data-name="Beall Investments_Horizontal_Solid_Color" xmlns="http://www.w3.org/2000/svg" width="239.285" height="58" viewBox="0 0 239.285 58">
  <path id="Path_1" data-name="Path 1" d="M86.882,40.2H43.114A9.713,9.713,0,0,0,33.4,49.914V88.486A9.713,9.713,0,0,0,43.114,98.2H86.882A9.713,9.713,0,0,0,96.6,88.486V49.914A9.713,9.713,0,0,0,86.882,40.2Z" transform="translate(-33.4 -40.2)" fill="#5475ad"/>
  <g id="Group_4" data-name="Group 4" transform="translate(71.667 0)">
    <path id="Path_2" data-name="Path 2" d="M318.2,40.2H170.014a9.713,9.713,0,0,0-9.714,9.714V88.486a9.713,9.713,0,0,0,9.714,9.714H318.2a9.713,9.713,0,0,0,9.714-9.714V49.914A9.713,9.713,0,0,0,318.2,40.2Z" transform="translate(-160.3 -40.2)" fill="#5475ad"/>
    <g id="Group_1" data-name="Group 1" transform="translate(14.571 41.566)">
      <path id="Path_3" data-name="Path 3" d="M187.06,114.1h-.734a.243.243,0,0,0-.226.226v6.551a.243.243,0,0,0,.226.226h.734a.243.243,0,0,0,.226-.226v-6.551C187.342,114.213,187.23,114.1,187.06,114.1Z" transform="translate(-186.1 -113.931)" fill="#fff"/>
      <path id="Path_4" data-name="Path 4" d="M208.908,114.1h-.734a.243.243,0,0,0-.226.226v4.8c-.113-.113-.226-.282-.4-.452l-4.462-4.574h-.565a.243.243,0,0,0-.226.226v6.551a.243.243,0,0,0,.226.226h.734a.243.243,0,0,0,.226-.226v-4.8a1.5,1.5,0,0,0,.282.339l4.574,4.687h.565a.243.243,0,0,0,.226-.226v-6.551A.243.243,0,0,0,208.908,114.1Z" transform="translate(-193.151 -113.931)" fill="#fff"/>
      <path id="Path_5" data-name="Path 5" d="M234.072,114.1h-.791c-.169,0-.226,0-.339.226l-1.977,3.953a4.885,4.885,0,0,0-.4.96c-.113-.226-.282-.678-.4-.96l-1.977-3.953c-.113-.169-.169-.226-.339-.226h-.791a.18.18,0,0,0-.169.169c0,.056.056.113.056.169l3.389,6.664h.508l3.389-6.664a.207.207,0,0,0,.057-.169C234.242,114.213,234.185,114.1,234.072,114.1Z" transform="translate(-203.858 -113.931)" fill="#fff"/>
      <path id="Path_6" data-name="Path 6" d="M257.722,119.9h-4.179v-2.033h3.727a.3.3,0,0,0,.282-.282v-.565a.3.3,0,0,0-.282-.282h-3.727V114.93h4.066a.3.3,0,0,0,.282-.282v-.565a.3.3,0,0,0-.282-.282h-5.083a.243.243,0,0,0-.226.226v6.551a.243.243,0,0,0,.226.226h5.2a.3.3,0,0,0,.282-.282v-.565C257.948,120.069,257.835,119.9,257.722,119.9Z" transform="translate(-214.913 -113.8)" fill="#fff"/>
      <path id="Path_7" data-name="Path 7" d="M278.666,116.963l-1.864-.113c-.678-.056-.96-.282-.96-.734,0-.678.734-1.186,1.751-1.186,1.468,0,1.751.791,1.751,1.073,0,.226.113.282.282.282h.678a.258.258,0,0,0,.282-.226c0-.847-.4-2.259-2.993-2.259-2.033,0-2.993,1.186-2.993,2.259,0,.734.339,1.638,2.09,1.807l1.92.113c.678.056,1.073.339,1.073.791,0,.791-.621,1.186-1.807,1.186-1.355,0-2.033-.4-2.033-1.3a.263.263,0,0,0-.282-.282h-.678c-.169,0-.226.056-.226.226v.113c0,1.355,1.242,2.259,3.219,2.259,2.09,0,2.993-1.186,2.993-2.259C280.869,118.205,280.586,117.132,278.666,116.963Z" transform="translate(-224.62 -113.8)" fill="#fff"/>
      <path id="Path_8" data-name="Path 8" d="M303.564,114.1h-6.382a.3.3,0,0,0-.282.282v.565a.3.3,0,0,0,.282.282h2.6v5.7a.243.243,0,0,0,.226.226h.734a.243.243,0,0,0,.226-.226v-5.7h2.6a.3.3,0,0,0,.282-.282v-.565A.363.363,0,0,0,303.564,114.1Z" transform="translate(-234.326 -113.931)" fill="#fff"/>
      <path id="Path_9" data-name="Path 9" d="M329.468,114.1h-.452a.311.311,0,0,0-.282.169l-2.937,4.179-2.937-4.179a.311.311,0,0,0-.282-.169h-.452a.243.243,0,0,0-.226.226v6.551a.243.243,0,0,0,.226.226h.734a.243.243,0,0,0,.226-.226v-4.518c.056.113.169.282.226.4l2.485,3.558,2.485-3.558a1.415,1.415,0,0,0,.226-.4v4.518a.243.243,0,0,0,.226.226h.734a.243.243,0,0,0,.226-.226v-6.551A.243.243,0,0,0,329.468,114.1Z" transform="translate(-245.207 -113.931)" fill="#fff"/>
      <path id="Path_10" data-name="Path 10" d="M355.122,119.9h-4.179v-2.033h3.727a.3.3,0,0,0,.282-.282v-.565a.3.3,0,0,0-.282-.282h-3.727V114.93h4.066a.3.3,0,0,0,.282-.282v-.565a.3.3,0,0,0-.282-.282h-5.083a.243.243,0,0,0-.226.226v6.551a.243.243,0,0,0,.226.226h5.2a.3.3,0,0,0,.282-.282v-.565C355.348,120.069,355.235,119.9,355.122,119.9Z" transform="translate(-257.307 -113.8)" fill="#fff"/>
      <path id="Path_11" data-name="Path 11" d="M379.408,114.1h-.734a.243.243,0,0,0-.226.226v4.8c-.113-.113-.226-.282-.4-.452l-4.461-4.574h-.565a.243.243,0,0,0-.226.226v6.551a.243.243,0,0,0,.226.226h.734a.243.243,0,0,0,.226-.226v-4.8a1.5,1.5,0,0,0,.282.339l4.575,4.687h.565a.243.243,0,0,0,.226-.226v-6.551A.243.243,0,0,0,379.408,114.1Z" transform="translate(-267.361 -113.931)" fill="#fff"/>
      <path id="Path_12" data-name="Path 12" d="M404.164,114.1h-6.382a.3.3,0,0,0-.282.282v.565a.3.3,0,0,0,.282.282h2.6v5.7a.243.243,0,0,0,.226.226h.734a.243.243,0,0,0,.226-.226v-5.7h2.6a.3.3,0,0,0,.282-.282v-.565C404.39,114.269,404.277,114.1,404.164,114.1Z" transform="translate(-278.112 -113.931)" fill="#fff"/>
      <path id="Path_13" data-name="Path 13" d="M425.266,116.963l-1.864-.113c-.678-.056-.96-.282-.96-.734,0-.678.734-1.186,1.751-1.186,1.468,0,1.751.791,1.751,1.073,0,.226.113.282.282.282h.678a.258.258,0,0,0,.282-.226c0-.847-.4-2.259-2.993-2.259-2.033,0-2.993,1.186-2.993,2.259,0,.734.339,1.638,2.09,1.807l1.92.113c.678.056,1.073.339,1.073.791,0,.791-.621,1.186-1.807,1.186-1.355,0-2.033-.4-2.033-1.3a.263.263,0,0,0-.282-.282h-.678c-.169,0-.226.056-.226.226v.113c0,1.355,1.242,2.259,3.219,2.259,2.09,0,2.993-1.186,2.993-2.259C427.469,118.205,427.186,117.132,425.266,116.963Z" transform="translate(-288.427 -113.8)" fill="#fff"/>
    </g>
    <g id="Group_3" data-name="Group 3" transform="translate(14.571 10.561)">
      <path id="Path_14" data-name="Path 14" d="M239.6,58.9h22.929v4.8h-16.66v3.727h15.813v4.857H245.869V76.69h16.886v4.857H239.6Z" transform="translate(-209.386 -58.9)" fill="#fff"/>
      <path id="Path_15" data-name="Path 15" d="M310.527,101.88A3.829,3.829,0,0,1,306.8,99h7.511A3.946,3.946,0,0,1,310.527,101.88Z" transform="translate(-238.635 -76.353)" fill="#fff"/>
      <path id="Path_16" data-name="Path 16" d="M310.12,81.547,301.7,64.491l-8.471,17.056H286.4L298.26,58.9h6.833l11.86,22.647Z" transform="translate(-229.755 -58.9)" fill="#fff"/>
      <path id="Path_17" data-name="Path 17" d="M368.9,81.547H346.2V58.9h6.156V76.577H368.9Z" transform="translate(-255.783 -58.9)" fill="#fff"/>
      <path id="Path_18" data-name="Path 18" d="M414.8,81.547H392.1V58.9h6.156V76.577H414.8Z" transform="translate(-275.761 -58.9)" fill="#fff"/>
      <g id="Group_2" data-name="Group 2">
        <path id="Path_19" data-name="Path 19" d="M211.627,73.019a4.587,4.587,0,0,0-1.073-1.638,5.682,5.682,0,0,0-1.92-1.073,10.087,10.087,0,0,0-2.824-.508,5.443,5.443,0,0,0,3.445-1.751,5.2,5.2,0,0,0,1.073-3.5,6.113,6.113,0,0,0-.339-2.146,4.054,4.054,0,0,0-.9-1.525,3.9,3.9,0,0,0-1.355-1.017,8.164,8.164,0,0,0-1.638-.621,10.625,10.625,0,0,0-1.864-.282c-.678-.056-1.3-.056-1.977-.056H186.1V81.547h16.434c.847,0,1.638-.056,2.485-.113a14.5,14.5,0,0,0,2.259-.339,9.613,9.613,0,0,0,1.92-.678,4.859,4.859,0,0,0,1.468-1.129,4.924,4.924,0,0,0,.96-1.694,6.911,6.911,0,0,0,.339-2.315A7.032,7.032,0,0,0,211.627,73.019Zm-19.427-9.6h9.036a5.683,5.683,0,0,1,1.525.169,3.043,3.043,0,0,1,.96.452,1.584,1.584,0,0,1,.452.678,1.922,1.922,0,0,1,.113.791,3.333,3.333,0,0,1-.113.791,1.44,1.44,0,0,1-.452.678,3.044,3.044,0,0,1-.96.452,5.683,5.683,0,0,1-1.525.169H192.2Zm13.272,12.425a1.567,1.567,0,0,1-.847.734,4.692,4.692,0,0,1-1.468.339c-.621.056-1.3.056-2.146.056h-8.867v-4.8h8.867c.847,0,1.525,0,2.146.056a4.692,4.692,0,0,1,1.468.339,1.8,1.8,0,0,1,.847.734,2.692,2.692,0,0,1,.282,1.242A2.769,2.769,0,0,1,205.471,75.843Z" transform="translate(-186.1 -58.9)" fill="#fff"/>
      </g>
    </g>
  </g>
  <path id="Path_20" data-name="Path 20" d="M89.5,59h11.464a7.809,7.809,0,0,1,7.794,7.794h0a7.809,7.809,0,0,1-7.794,7.794H89.5V59Z" transform="translate(-57.817 -48.383)" fill="#fff"/>
  <rect id="Rectangle_1" data-name="Rectangle 1" width="17.281" height="38.347" transform="translate(10.787 10.617)" fill="#fff"/>
  <path id="Path_21" data-name="Path 21" d="M112.2,102.6a9.593,9.593,0,0,1-9.6,9.6H89.5V93h13.1a9.593,9.593,0,0,1,9.6,9.6Z" transform="translate(-57.817 -63.181)" fill="#fff"/>
</svg>
