<svg id="Group_152" data-name="Group 152" xmlns="http://www.w3.org/2000/svg" xmlns:xlink="http://www.w3.org/1999/xlink" width="238.889" height="57.918" viewBox="0 0 238.889 57.918">
  <defs>
    <clipPath id="clip-path">
      <rect id="Rectangle_166" data-name="Rectangle 166" width="238.889" height="57.918" fill="none"/>
    </clipPath>
  </defs>
  <g id="Group_91" data-name="Group 91" transform="translate(0 0)" clip-path="url(#clip-path)">
    <path id="Path_91" data-name="Path 91" d="M284.545.061H136.578a9.685,9.685,0,0,0-9.685,9.685V48.26a9.685,9.685,0,0,0,9.685,9.685H284.545a9.685,9.685,0,0,0,9.685-9.685V9.746A9.685,9.685,0,0,0,284.545.061" transform="translate(-55.341 -0.027)" fill="#981a13"/>
    <path id="Path_92" data-name="Path 92" d="M156.138,74.314h-2.709a.24.24,0,0,0-.231.231v6.318a.24.24,0,0,0,.231.231h2.731c2.24,0,3.631-1.3,3.631-3.389a3.375,3.375,0,0,0-3.653-3.389m.022,5.747h-1.8V75.346h1.776a2.273,2.273,0,0,1,2.489,2.358,2.177,2.177,0,0,1-2.467,2.358" transform="translate(-66.813 -32.41)" fill="#fff"/>
    <path id="Path_93" data-name="Path 93" d="M182.924,80.061h-4.068V78.11h3.63a.282.282,0,0,0,.253-.253v-.527a.282.282,0,0,0-.253-.253h-3.63V75.346h3.958a.282.282,0,0,0,.253-.253v-.527a.282.282,0,0,0-.253-.253h-4.891a.24.24,0,0,0-.231.231v6.318a.24.24,0,0,0,.231.231h5a.281.281,0,0,0,.253-.253v-.527a.282.282,0,0,0-.253-.253" transform="translate(-77.495 -32.41)" fill="#fff"/>
    <path id="Path_94" data-name="Path 94" d="M205.514,74.313h-.768c-.161,0-.221.015-.319.2l-1.908,3.806c-.12.241-.3.676-.394.9-.093-.227-.273-.662-.394-.9l-1.91-3.808c-.092-.172-.147-.2-.317-.2h-.767a.169.169,0,0,0-.187.165.474.474,0,0,0,.065.188l3.252,6.427h.517l3.255-6.434a.448.448,0,0,0,.062-.18.169.169,0,0,0-.187-.165" transform="translate(-86.592 -32.41)" fill="#fff"/>
    <path id="Path_95" data-name="Path 95" d="M228.489,80.061H224.42V78.11h3.63a.282.282,0,0,0,.253-.253v-.527a.282.282,0,0,0-.253-.253h-3.63V75.346h3.958a.282.282,0,0,0,.254-.253v-.527a.282.282,0,0,0-.254-.253h-4.89a.24.24,0,0,0-.231.231v6.318a.24.24,0,0,0,.231.231h5a.282.282,0,0,0,.253-.253v-.527a.282.282,0,0,0-.253-.253" transform="translate(-97.367 -32.41)" fill="#fff"/>
    <path id="Path_96" data-name="Path 96" d="M250.275,80.061h-3.52V74.545a.24.24,0,0,0-.231-.231h-.7a.24.24,0,0,0-.231.231v6.318a.24.24,0,0,0,.231.231h4.453a.281.281,0,0,0,.253-.253v-.527a.282.282,0,0,0-.253-.253" transform="translate(-107.108 -32.41)" fill="#fff"/>
    <path id="Path_97" data-name="Path 97" d="M268.933,74.119a3.5,3.5,0,1,0,3.653,3.5,3.424,3.424,0,0,0-3.653-3.5m0,5.966a2.467,2.467,0,1,1,0-4.934,2.346,2.346,0,0,1,2.49,2.467,2.371,2.371,0,0,1-2.49,2.467" transform="translate(-115.695 -32.325)" fill="#fff"/>
    <path id="Path_98" data-name="Path 98" d="M293.967,74.313h-2.7a.24.24,0,0,0-.231.231v6.318a.24.24,0,0,0,.231.231h.7a.24.24,0,0,0,.231-.231v-1.6h1.766a2.49,2.49,0,1,0,0-4.948m1.612,2.479a1.447,1.447,0,0,1-1.634,1.436H292.2V75.345h1.743a1.451,1.451,0,0,1,1.634,1.447" transform="translate(-126.928 -32.41)" fill="#fff"/>
    <path id="Path_99" data-name="Path 99" d="M320.972,74.313h-.45a.348.348,0,0,0-.289.152l-2.848,4.046-2.847-4.046a.349.349,0,0,0-.289-.152h-.45a.24.24,0,0,0-.231.231v6.317a.24.24,0,0,0,.231.231h.7a.24.24,0,0,0,.231-.231V76.493a3.51,3.51,0,0,0,.236.389l2.418,3.45,2.417-3.45a3.393,3.393,0,0,0,.236-.39v4.368a.241.241,0,0,0,.231.231h.7a.24.24,0,0,0,.231-.231V74.544a.24.24,0,0,0-.231-.231" transform="translate(-136.754 -32.41)" fill="#fff"/>
    <path id="Path_100" data-name="Path 100" d="M345.842,80.061h-4.068V78.11h3.63a.282.282,0,0,0,.253-.253v-.527a.282.282,0,0,0-.253-.253h-3.63V75.346h3.958a.282.282,0,0,0,.253-.253v-.527a.282.282,0,0,0-.253-.253h-4.891a.24.24,0,0,0-.231.231v6.318a.24.24,0,0,0,.231.231h5a.281.281,0,0,0,.253-.253v-.527a.282.282,0,0,0-.253-.253" transform="translate(-148.548 -32.41)" fill="#fff"/>
    <path id="Path_101" data-name="Path 101" d="M369.383,74.313h-.7a.24.24,0,0,0-.231.231v4.638a3.955,3.955,0,0,0-.367-.43l-4.34-4.439h-.568a.24.24,0,0,0-.231.231v6.317a.241.241,0,0,0,.231.231h.7a.24.24,0,0,0,.231-.231V76.215a3.77,3.77,0,0,0,.279.328l4.439,4.549h.557a.24.24,0,0,0,.231-.231V74.544a.24.24,0,0,0-.231-.231" transform="translate(-158.288 -32.41)" fill="#fff"/>
    <path id="Path_102" data-name="Path 102" d="M393.408,74.313h-6.164a.282.282,0,0,0-.253.253v.527a.282.282,0,0,0,.253.253h2.5v5.516a.24.24,0,0,0,.231.231h.7a.24.24,0,0,0,.231-.231V75.345h2.5a.282.282,0,0,0,.253-.253v-.527a.282.282,0,0,0-.253-.253" transform="translate(-168.776 -32.41)" fill="#fff"/>
    <path id="Path_103" data-name="Path 103" d="M206.108,18.676h22.906V23.5H212.382v3.738h15.776v4.825H212.382v4.413h16.863V41.3H206.108Z" transform="translate(-89.888 -8.145)" fill="#fff"/>
    <path id="Path_104" data-name="Path 104" d="M277.054,61.686A3.888,3.888,0,0,1,273.3,58.8h7.5a3.888,3.888,0,0,1-3.749,2.885" transform="translate(-119.194 -25.644)" fill="#fff"/>
    <path id="Path_105" data-name="Path 105" d="M276.591,41.3l-8.4-17.027L259.728,41.3h-6.817l11.84-22.626h6.817L283.408,41.3Z" transform="translate(-110.3 -8.145)" fill="#fff"/>
    <path id="Path_106" data-name="Path 106" d="M335.394,41.3H312.769V18.677h6.109V36.346h16.517Z" transform="translate(-136.405 -8.145)" fill="#fff"/>
    <path id="Path_107" data-name="Path 107" d="M381.292,41.3H358.667V18.677h6.109V36.346h16.517Z" transform="translate(-156.423 -8.145)" fill="#fff"/>
    <path id="Path_108" data-name="Path 108" d="M178.119,32.814a3.953,3.953,0,0,0-1.087-1.63,5.29,5.29,0,0,0-1.918-1.054,11.728,11.728,0,0,0-2.824-.5,5.624,5.624,0,0,0,3.425-1.721,5.264,5.264,0,0,0,1.087-3.5,6.41,6.41,0,0,0-.321-2.141,4.655,4.655,0,0,0-.889-1.548,4.567,4.567,0,0,0-1.334-1.038,7.651,7.651,0,0,0-1.655-.617,11.8,11.8,0,0,0-1.869-.3q-.98-.082-1.952-.082H152.66V41.3h16.418q1.268,0,2.453-.1a14.4,14.4,0,0,0,2.231-.354,8.946,8.946,0,0,0,1.91-.691,4.9,4.9,0,0,0,1.482-1.136,5.065,5.065,0,0,0,.964-1.672,6.839,6.839,0,0,0,.346-2.289,6.66,6.66,0,0,0-.346-2.248M158.77,23.222h9.007a5.3,5.3,0,0,1,1.515.181,2.6,2.6,0,0,1,.938.478,1.557,1.557,0,0,1,.478.683,2.584,2.584,0,0,1,0,1.63,1.452,1.452,0,0,1-.478.667,2.57,2.57,0,0,1-.938.444,5.787,5.787,0,0,1-1.515.165H158.77ZM171.993,35.6a1.772,1.772,0,0,1-.823.732,4.376,4.376,0,0,1-1.449.346q-.889.083-2.124.082H158.77V31.966H167.6q1.235,0,2.124.082a4.552,4.552,0,0,1,1.449.337,1.737,1.737,0,0,1,.823.725,3.067,3.067,0,0,1,0,2.487" transform="translate(-66.578 -8.145)" fill="#fff"/>
    <path id="Path_109" data-name="Path 109" d="M53.4,0H9.685A9.685,9.685,0,0,0,0,9.685V48.2a9.685,9.685,0,0,0,9.685,9.685H53.4A9.685,9.685,0,0,0,63.081,48.2V9.685A9.685,9.685,0,0,0,53.4,0" transform="translate(0 0)" fill="#981a13"/>
    <path id="Path_110" data-name="Path 110" d="M56.092,18.789H67.564a7.771,7.771,0,0,1,0,15.542H56.092Z" transform="translate(-24.463 -8.194)" fill="#fff"/>
    <rect id="Rectangle_165" data-name="Rectangle 165" width="17.265" height="38.297" transform="translate(10.757 10.595)" fill="#fff"/>
    <path id="Path_111" data-name="Path 111" d="M78.75,62.365a9.584,9.584,0,0,1-9.584,9.584H56.093V52.781H69.167A9.584,9.584,0,0,1,78.75,62.365Z" transform="translate(-24.463 -23.019)" fill="#fff"/>
  </g>
</svg>
