<svg id="Group_172" data-name="Group 172" xmlns="http://www.w3.org/2000/svg" xmlns:xlink="http://www.w3.org/1999/xlink" width="304.623" height="73.806" viewBox="0 0 304.623 73.806">
  <defs>
    <clipPath id="clip-path">
      <rect id="Rectangle_238" data-name="Rectangle 238" width="304.623" height="73.806" fill="none"/>
    </clipPath>
  </defs>
  <g id="Group_172-2" data-name="Group 172" clip-path="url(#clip-path)">
    <path id="Path_200" data-name="Path 200" d="M68.081,0H12.349A12.349,12.349,0,0,0,0,12.349V61.458A12.349,12.349,0,0,0,12.349,73.806H68.081A12.349,12.349,0,0,0,80.43,61.458V12.349A12.349,12.349,0,0,0,68.081,0" fill="#5475ad"/>
    <path id="Path_201" data-name="Path 201" d="M327.925,0H139.254A12.349,12.349,0,0,0,126.9,12.349V61.458a12.349,12.349,0,0,0,12.349,12.349H327.925a12.349,12.349,0,0,0,12.349-12.349V12.349A12.349,12.349,0,0,0,327.925,0" transform="translate(-35.65)" fill="#5475ad"/>
    <path id="Path_202" data-name="Path 202" d="M206.12,18.63h29.215v6.154H214.122v4.768h20.121v6.154H214.122v5.629h21.507v6.154H206.12Z" transform="translate(-57.903 -5.234)" fill="#fff"/>
    <path id="Path_203" data-name="Path 203" d="M278.11,62.442a4.96,4.96,0,0,1-4.782-3.68h9.563a4.958,4.958,0,0,1-4.781,3.68" transform="translate(-76.783 -16.507)" fill="#fff"/>
    <path id="Path_204" data-name="Path 204" d="M283.133,47.488,272.422,25.771l-10.8,21.717h-8.7l15.1-28.858h8.694l15.1,28.858Z" transform="translate(-71.053 -5.234)" fill="#fff"/>
    <path id="Path_205" data-name="Path 205" d="M341.656,47.488H312.8V18.63h7.793V41.166h21.065Z" transform="translate(-87.871 -5.234)" fill="#fff"/>
    <path id="Path_206" data-name="Path 206" d="M387.562,47.488H358.7V18.63H366.5V41.166h21.065Z" transform="translate(-100.767 -5.234)" fill="#fff"/>
    <path id="Path_207" data-name="Path 207" d="M185.134,36.661a5.046,5.046,0,0,0-1.386-2.08,6.772,6.772,0,0,0-2.447-1.344,15,15,0,0,0-3.6-.641,7.173,7.173,0,0,0,4.368-2.195,6.714,6.714,0,0,0,1.386-4.463,8.177,8.177,0,0,0-.41-2.731,5.936,5.936,0,0,0-1.134-1.974,5.8,5.8,0,0,0-1.7-1.323,9.707,9.707,0,0,0-2.11-.788,15.133,15.133,0,0,0-2.384-.388q-1.25-.1-2.489-.1H152.664V47.488H173.6q1.618,0,3.129-.127a18.387,18.387,0,0,0,2.846-.451,11.384,11.384,0,0,0,2.436-.882,6.252,6.252,0,0,0,1.89-1.449,6.457,6.457,0,0,0,1.228-2.132,8.71,8.71,0,0,0,.442-2.919,8.476,8.476,0,0,0-.442-2.867M160.456,24.427h11.489a6.726,6.726,0,0,1,1.932.232,3.3,3.3,0,0,1,1.2.609,1.985,1.985,0,0,1,.609.872,3.294,3.294,0,0,1,0,2.079,1.851,1.851,0,0,1-.609.851,3.281,3.281,0,0,1-1.2.567,7.379,7.379,0,0,1-1.932.21H160.456ZM177.321,40.21a2.268,2.268,0,0,1-1.05.935,5.581,5.581,0,0,1-1.849.441q-1.134.106-2.709.1H160.456V35.579h11.258q1.575,0,2.709.1a5.805,5.805,0,0,1,1.849.43,2.215,2.215,0,0,1,1.05.925,3.911,3.911,0,0,1,0,3.171" transform="translate(-42.886 -5.234)" fill="#fff"/>
    <path id="Rectangle_236" data-name="Rectangle 236" d="M.275,0H1.962a.275.275,0,0,1,.275.275V9.6a.274.274,0,0,1-.274.274H.274A.274.274,0,0,1,0,9.6V.275A.275.275,0,0,1,.275,0Z" transform="translate(109.778 52.275)" fill="#fff"/>
    <path id="Path_208" data-name="Path 208" d="M176.318,82.566l-5.034-5.133c-.526-.526-1.119-1.266-1.119-1.266h-.05v6.2a.212.212,0,0,1-.2.2h-1.842a.212.212,0,0,1-.2-.2V72.894a.212.212,0,0,1,.2-.2h1.513l4.985,5.066a16.5,16.5,0,0,1,1.151,1.333h.066v-6.2a.212.212,0,0,1,.2-.2h1.842a.212.212,0,0,1,.2.2v9.475a.212.212,0,0,1-.2.2Z" transform="translate(-47.161 -20.422)" fill="#fff"/>
    <path id="Path_209" data-name="Path 209" d="M197.443,77.664a14.654,14.654,0,0,1,.641,1.629h.1a14.571,14.571,0,0,1,.642-1.629l2.286-4.754c.1-.2.148-.214.346-.214h1.974c.1,0,.132.05.132.1a.826.826,0,0,1-.1.247l-4.556,9.524h-1.547L192.8,73.042a.82.82,0,0,1-.1-.247c0-.049.032-.1.132-.1h1.974c.2,0,.247.016.345.214Z" transform="translate(-54.135 -20.422)" fill="#fff"/>
    <path id="Path_210" data-name="Path 210" d="M220.752,78.454v2.238h5.791a.278.278,0,0,1,.229.229v1.415a.278.278,0,0,1-.229.23h-7.831a.212.212,0,0,1-.2-.2V72.894a.212.212,0,0,1,.2-.2h7.732a.278.278,0,0,1,.23.23v1.415a.278.278,0,0,1-.23.229h-5.692v2.007h5.2a.28.28,0,0,1,.231.231v1.414a.28.28,0,0,1-.231.23Z" transform="translate(-61.385 -20.422)" fill="#fff"/>
    <path id="Path_211" data-name="Path 211" d="M242.48,79.18a.287.287,0,0,1,.329.247c.165.839.872,1.365,2.434,1.365,1.58,0,2.287-.593,2.287-1.3,0-.46-.329-.872-1.316-.954l-2.566-.214c-2.007-.164-3.076-1.086-3.076-2.566,0-1.711,1.5-3.291,4.408-3.291,3.011,0,4.327,1.4,4.327,2.977a.287.287,0,0,1-.313.28h-1.628a.254.254,0,0,1-.3-.247c-.1-.576-.658-1.135-2.105-1.135-1.382,0-2.155.559-2.155,1.283,0,.444.3.773,1.2.839l2.55.214c2.3.2,3.208,1.349,3.208,2.715,0,1.546-1.333,3.273-4.524,3.273-3.01,0-4.671-1.431-4.671-3.059v-.132a.3.3,0,0,1,.312-.3Z" transform="translate(-67.581 -20.358)" fill="#fff"/>
    <path id="Path_212" data-name="Path 212" d="M262.9,74.571a.28.28,0,0,1-.231-.23V72.927a.28.28,0,0,1,.231-.231h9.344a.279.279,0,0,1,.229.231v1.414a.279.279,0,0,1-.229.23H268.7v7.8a.213.213,0,0,1-.2.2h-1.842a.213.213,0,0,1-.2-.2v-7.8Z" transform="translate(-73.79 -20.422)" fill="#fff"/>
    <path id="Path_213" data-name="Path 213" d="M298.435,72.7a.212.212,0,0,1,.2.2v9.475a.212.212,0,0,1-.2.2h-1.842a.212.212,0,0,1-.2-.2V76.333h-.05a5.359,5.359,0,0,1-.608,1.053l-2.912,4.1-2.928-4.1a5.7,5.7,0,0,1-.593-1.053h-.05v6.036a.212.212,0,0,1-.2.2h-1.842a.212.212,0,0,1-.2-.2V72.894a.212.212,0,0,1,.2-.2h1.448a.378.378,0,0,1,.312.164l3.832,5.364h.033l3.833-5.364a.376.376,0,0,1,.312-.164Z" transform="translate(-80.63 -20.422)" fill="#fff"/>
    <path id="Path_214" data-name="Path 214" d="M317.514,78.454v2.238H323.3a.278.278,0,0,1,.229.229v1.415a.278.278,0,0,1-.229.23h-7.831a.212.212,0,0,1-.2-.2V72.894a.212.212,0,0,1,.2-.2h7.732a.278.278,0,0,1,.23.23v1.415a.278.278,0,0,1-.23.229h-5.692v2.007h5.2a.28.28,0,0,1,.231.231v1.414a.28.28,0,0,1-.231.23Z" transform="translate(-88.568 -20.422)" fill="#fff"/>
    <path id="Path_215" data-name="Path 215" d="M346.482,82.566l-5.034-5.133c-.526-.526-1.118-1.266-1.118-1.266h-.05v6.2a.212.212,0,0,1-.2.2h-1.843a.212.212,0,0,1-.2-.2V72.894a.212.212,0,0,1,.2-.2h1.514l4.984,5.066a16.574,16.574,0,0,1,1.152,1.333h.065v-6.2a.212.212,0,0,1,.2-.2H348a.212.212,0,0,1,.2.2v9.475a.212.212,0,0,1-.2.2Z" transform="translate(-94.963 -20.422)" fill="#fff"/>
    <path id="Path_216" data-name="Path 216" d="M363.1,74.571a.28.28,0,0,1-.231-.23V72.927a.28.28,0,0,1,.231-.231h9.344a.279.279,0,0,1,.23.231v1.414a.279.279,0,0,1-.23.23H368.89v7.8a.213.213,0,0,1-.2.2H366.85a.213.213,0,0,1-.2-.2v-7.8Z" transform="translate(-101.937 -20.422)" fill="#fff"/>
    <path id="Path_217" data-name="Path 217" d="M387.956,79.18a.287.287,0,0,1,.329.247c.165.839.872,1.365,2.434,1.365,1.58,0,2.287-.593,2.287-1.3,0-.46-.329-.872-1.316-.954l-2.566-.214c-2.007-.164-3.076-1.086-3.076-2.566,0-1.711,1.5-3.291,4.408-3.291,3.011,0,4.327,1.4,4.327,2.977a.287.287,0,0,1-.313.28h-1.628a.254.254,0,0,1-.3-.247c-.1-.576-.658-1.135-2.105-1.135-1.382,0-2.155.559-2.155,1.283,0,.444.3.773,1.2.839l2.55.214c2.3.2,3.208,1.349,3.208,2.715,0,1.546-1.333,3.273-4.524,3.273-3.01,0-4.671-1.431-4.671-3.059v-.132a.3.3,0,0,1,.312-.3Z" transform="translate(-108.449 -20.358)" fill="#fff"/>
    <path id="Path_218" data-name="Path 218" d="M56.082,18.785H70.708a9.908,9.908,0,0,1,0,19.816H56.082Z" transform="translate(-15.755 -5.277)" fill="#fff"/>
    <rect id="Rectangle_237" data-name="Rectangle 237" width="22.014" height="48.83" transform="translate(13.715 13.509)" fill="#fff"/>
    <path id="Path_219" data-name="Path 219" d="M84.971,64.991A12.219,12.219,0,0,1,72.752,77.211H56.083V52.772H72.752A12.219,12.219,0,0,1,84.971,64.991Z" transform="translate(-15.755 -14.825)" fill="#fff"/>
  </g>
</svg>
