<svg id="Group_174" data-name="Group 174" xmlns="http://www.w3.org/2000/svg" xmlns:xlink="http://www.w3.org/1999/xlink" width="308.305" height="74.698" viewBox="0 0 308.305 74.698">
  <defs>
    <clipPath id="clip-path">
      <rect id="Rectangle_239" data-name="Rectangle 239" width="308.305" height="74.698" fill="none"/>
    </clipPath>
  </defs>
  <g id="Group_174-2" data-name="Group 174" clip-path="url(#clip-path)">
    <path id="Path_220" data-name="Path 220" d="M177.083,31.963a3.321,3.321,0,0,0,1.212-.574,1.874,1.874,0,0,0,.616-.861,3.337,3.337,0,0,0,0-2.1,2.011,2.011,0,0,0-.616-.881,3.352,3.352,0,0,0-1.212-.617,6.836,6.836,0,0,0-1.956-.234H163.5v5.484h11.628a7.468,7.468,0,0,0,1.956-.213" transform="translate(-44.509 -7.266)" fill="#fff"/>
    <path id="Path_221" data-name="Path 221" d="M179.507,42.743a5.894,5.894,0,0,0-1.87-.436q-1.148-.106-2.742-.106H163.5v6.185h11.394q1.594,0,2.742-.106a5.648,5.648,0,0,0,1.87-.447,2.283,2.283,0,0,0,1.063-.945,3.952,3.952,0,0,0,0-3.21,2.234,2.234,0,0,0-1.063-.935" transform="translate(-44.509 -11.489)" fill="#fff"/>
    <path id="Path_222" data-name="Path 222" d="M330.354,0H139.4a12.5,12.5,0,0,0-12.5,12.5V62.2a12.5,12.5,0,0,0,12.5,12.5H330.354a12.5,12.5,0,0,0,12.5-12.5V12.5A12.5,12.5,0,0,0,330.354,0m-145.8,13.558h29.568v6.228H192.655v4.825h20.364V30.84H192.655v5.7h21.767v6.228H184.556ZM147.916,62.7a.215.215,0,0,1-.2.2h-1.865a.215.215,0,0,1-.2-.2V53.106a.214.214,0,0,1,.2-.2h1.865a.214.214,0,0,1,.2.2ZM167,62.7a.215.215,0,0,1-.2.2h-1.531l-5.1-5.194c-.533-.533-1.132-1.282-1.132-1.282h-.05V62.7a.215.215,0,0,1-.2.2h-1.865a.215.215,0,0,1-.2-.2V53.106a.215.215,0,0,1,.2-.2h1.531l5.045,5.127a16.7,16.7,0,0,1,1.165,1.349h.067V53.106a.214.214,0,0,1,.2-.2H166.8a.214.214,0,0,1,.2.2Zm3.015-20.058q-1.53.129-3.167.128H145.652V13.558h20.81q1.254,0,2.519.106a15.227,15.227,0,0,1,2.413.394,9.837,9.837,0,0,1,2.136.8,5.9,5.9,0,0,1,1.722,1.339,6,6,0,0,1,1.148,2,8.273,8.273,0,0,1,.414,2.763,6.8,6.8,0,0,1-1.4,4.517,7.26,7.26,0,0,1-4.421,2.221,15.184,15.184,0,0,1,3.645.649,6.828,6.828,0,0,1,2.476,1.36,5.1,5.1,0,0,1,1.4,2.1,8.577,8.577,0,0,1,.446,2.9,8.816,8.816,0,0,1-.446,2.955,6.535,6.535,0,0,1-1.243,2.158,6.325,6.325,0,0,1-1.913,1.466,11.536,11.536,0,0,1-2.466.893,18.61,18.61,0,0,1-2.881.456m15.669,10.619L181.069,62.9H179.5l-4.612-9.639a.85.85,0,0,1-.1-.25c0-.049.033-.1.133-.1h2c.2,0,.25.016.35.216l2.314,4.811a14.747,14.747,0,0,1,.65,1.648h.1a14.83,14.83,0,0,1,.649-1.648l2.314-4.811c.1-.2.15-.216.349-.216h2c.1,0,.133.05.133.1a.83.83,0,0,1-.1.25m16.252,9.406a.281.281,0,0,1-.232.233h-7.925a.215.215,0,0,1-.2-.2V53.106a.214.214,0,0,1,.2-.2H201.6a.281.281,0,0,1,.233.233v1.432a.281.281,0,0,1-.233.232h-5.76v2.031H201.1a.283.283,0,0,1,.233.234V58.5a.283.283,0,0,1-.233.233H195.84V61H201.7a.281.281,0,0,1,.232.232Zm12.424.4c-3.047,0-4.728-1.448-4.728-3.1v-.133a.3.3,0,0,1,.316-.3h1.615a.29.29,0,0,1,.333.25c.167.849.882,1.381,2.464,1.381,1.6,0,2.314-.6,2.314-1.315,0-.466-.333-.882-1.332-.966l-2.6-.216c-2.031-.167-3.113-1.1-3.113-2.6,0-1.731,1.515-3.33,4.461-3.33,3.048,0,4.379,1.415,4.379,3.013a.29.29,0,0,1-.316.284H216.5a.257.257,0,0,1-.3-.25c-.1-.583-.666-1.148-2.131-1.148-1.4,0-2.181.565-2.181,1.3,0,.45.3.782,1.215.849l2.581.217c2.33.2,3.247,1.365,3.247,2.747,0,1.565-1.349,3.312-4.578,3.312m21.28-8.489a.282.282,0,0,1-.233.232h-3.6V62.7a.215.215,0,0,1-.2.2h-1.865a.215.215,0,0,1-.2-.2V54.8h-3.6a.282.282,0,0,1-.233-.232V53.14a.282.282,0,0,1,.233-.233H235.4a.282.282,0,0,1,.233.233Zm2.67-8.083a5.02,5.02,0,0,1-4.839-3.724h9.679a5.021,5.021,0,0,1-4.84,3.724M255.186,62.7a.215.215,0,0,1-.2.2h-1.865a.215.215,0,0,1-.2-.2v-6.11h-.05a5.44,5.44,0,0,1-.616,1.066L249.309,61.8l-2.963-4.145a5.756,5.756,0,0,1-.6-1.066h-.05V62.7a.215.215,0,0,1-.2.2h-1.865a.215.215,0,0,1-.2-.2V53.106a.214.214,0,0,1,.2-.2H245.1a.383.383,0,0,1,.316.166l3.879,5.428h.033l3.88-5.428a.382.382,0,0,1,.316-.166h1.465a.215.215,0,0,1,.2.2Zm-6-19.93L238.35,20.786,227.424,42.765h-8.8l15.283-29.207h8.8l15.284,29.207Zm23.164,19.9a.282.282,0,0,1-.233.233H264.2a.215.215,0,0,1-.2-.2V53.106a.214.214,0,0,1,.2-.2h7.825a.282.282,0,0,1,.233.233v1.432a.282.282,0,0,1-.233.232h-5.76v2.031h5.261a.283.283,0,0,1,.233.234V58.5a.283.283,0,0,1-.233.233h-5.261V61h5.86a.282.282,0,0,1,.233.232Zm18.483.033a.215.215,0,0,1-.2.2h-1.532L284.012,57.7c-.532-.533-1.132-1.282-1.132-1.282h-.05V62.7a.215.215,0,0,1-.2.2h-1.865a.215.215,0,0,1-.2-.2V53.106a.214.214,0,0,1,.2-.2H282.3l5.044,5.127a16.778,16.778,0,0,1,1.166,1.349h.066V53.106a.214.214,0,0,1,.2-.2h1.865a.214.214,0,0,1,.2.2Zm.562-19.93H262.193V13.558h7.886V36.367H291.4Zm17.156,11.807a.282.282,0,0,1-.233.232h-3.6V62.7a.215.215,0,0,1-.2.2h-1.864a.215.215,0,0,1-.2-.2V54.8h-3.6a.283.283,0,0,1-.234-.232V53.14a.283.283,0,0,1,.234-.233h9.456a.282.282,0,0,1,.233.233Zm11.674,8.489c-3.046,0-4.728-1.448-4.728-3.1v-.133a.3.3,0,0,1,.316-.3h1.615a.29.29,0,0,1,.333.25c.167.849.882,1.381,2.464,1.381,1.6,0,2.314-.6,2.314-1.315,0-.466-.333-.882-1.332-.966l-2.6-.216c-2.032-.167-3.113-1.1-3.113-2.6,0-1.731,1.515-3.33,4.461-3.33,3.047,0,4.379,1.415,4.379,3.013a.291.291,0,0,1-.317.284h-1.648a.257.257,0,0,1-.3-.25c-.1-.583-.666-1.148-2.131-1.148-1.4,0-2.181.565-2.181,1.3,0,.45.3.782,1.215.849l2.581.217c2.331.2,3.247,1.365,3.247,2.747,0,1.565-1.349,3.312-4.579,3.312m4.579-20.3H295.6V13.558h7.887V36.367h21.32Z" transform="translate(-34.547)" fill="#fff"/>
    <path id="Path_223" data-name="Path 223" d="M68.9,0H12.5A12.5,12.5,0,0,0,0,12.5V62.2A12.5,12.5,0,0,0,12.5,74.7H68.9A12.5,12.5,0,0,0,81.4,62.2V12.5A12.5,12.5,0,0,0,68.9,0M40.816,13.671h14.8a10.028,10.028,0,1,1,0,20.056h-14.8Zm-4.655,49.42H13.881V13.671h22.28ZM70.053,50.773A12.367,12.367,0,0,1,57.686,63.14H40.816V38.406h16.87A12.367,12.367,0,0,1,70.053,50.773Z" fill="#fff"/>
  </g>
</svg>
