<svg xmlns="http://www.w3.org/2000/svg" xmlns:xlink="http://www.w3.org/1999/xlink" width="303.992" height="73.702" viewBox="0 0 303.992 73.702">
  <defs>
    <clipPath id="clip-path">
      <rect id="Rectangle_235" data-name="Rectangle 235" width="303.992" height="73.702" fill="none"/>
    </clipPath>
  </defs>
  <g id="Group_171" data-name="Group 171" transform="translate(0 0)">
    <g id="Group_171-2" data-name="Group 171" transform="translate(0 0)" clip-path="url(#clip-path)">
      <path id="Path_179" data-name="Path 179" d="M327.51.061H139.217a12.324,12.324,0,0,0-12.324,12.324V61.4a12.324,12.324,0,0,0,12.324,12.324H327.51A12.324,12.324,0,0,0,339.833,61.4V12.385A12.324,12.324,0,0,0,327.51.061" transform="translate(-35.841 -0.017)" fill="#981a13"/>
      <path id="Path_180" data-name="Path 180" d="M206.108,18.676h29.148v6.14H214.091v4.757h20.075v6.139H214.091v5.616H235.55v6.139H206.108Z" transform="translate(-58.215 -5.275)" fill="#fff"/>
      <path id="Path_181" data-name="Path 181" d="M278.075,62.472A4.948,4.948,0,0,1,273.3,58.8h9.541a4.947,4.947,0,0,1-4.77,3.671" transform="translate(-77.195 -16.608)" fill="#fff"/>
      <path id="Path_182" data-name="Path 182" d="M283.044,47.468,272.357,25.8,261.586,47.468h-8.675l15.066-28.792h8.675l15.066,28.792Z" transform="translate(-71.435 -5.275)" fill="#fff"/>
      <path id="Path_183" data-name="Path 183" d="M341.56,47.468H312.769V18.677h7.774V41.161H341.56Z" transform="translate(-88.342 -5.275)" fill="#fff"/>
      <path id="Path_184" data-name="Path 184" d="M387.458,47.468H358.667V18.677h7.774V41.161h21.018Z" transform="translate(-101.306 -5.275)" fill="#fff"/>
      <path id="Path_185" data-name="Path 185" d="M185.057,36.666a5.03,5.03,0,0,0-1.383-2.074,6.732,6.732,0,0,0-2.441-1.341,14.924,14.924,0,0,0-3.593-.639A7.16,7.16,0,0,0,182,30.422a6.7,6.7,0,0,0,1.383-4.452,8.156,8.156,0,0,0-.408-2.725,5.924,5.924,0,0,0-1.132-1.97,5.812,5.812,0,0,0-1.7-1.32,9.737,9.737,0,0,0-2.106-.786,15.018,15.018,0,0,0-2.379-.387q-1.247-.1-2.483-.105H152.66V47.468h20.892q1.613,0,3.122-.126a18.326,18.326,0,0,0,2.839-.45,11.384,11.384,0,0,0,2.431-.88,6.236,6.236,0,0,0,1.886-1.446,6.444,6.444,0,0,0,1.226-2.128,8.7,8.7,0,0,0,.44-2.913,8.475,8.475,0,0,0-.44-2.86M160.435,24.46H171.9a6.74,6.74,0,0,1,1.928.23,3.312,3.312,0,0,1,1.194.608,1.981,1.981,0,0,1,.608.87,3.288,3.288,0,0,1,0,2.074,1.851,1.851,0,0,1-.608.849,3.282,3.282,0,0,1-1.194.565,7.364,7.364,0,0,1-1.928.21H160.435Zm16.827,15.747a2.254,2.254,0,0,1-1.048.932,5.568,5.568,0,0,1-1.844.441q-1.131.105-2.7.1H160.435v-6.1h11.232q1.571,0,2.7.1a5.793,5.793,0,0,1,1.844.429,2.21,2.21,0,0,1,1.048.922,3.9,3.9,0,0,1,0,3.164" transform="translate(-43.119 -5.275)" fill="#fff"/>
      <path id="Path_186" data-name="Path 186" d="M152.852,82.83a.205.205,0,0,1-.191-.192V73.452a.205.205,0,0,1,.191-.191h4.035c3.029,0,5.295,1.866,5.295,4.784,0,2.887-1.914,4.785-5.263,4.785Zm1.978-7.751v5.933h2.09a2.764,2.764,0,0,0,3.094-2.967,2.89,2.89,0,0,0-3.126-2.966Z" transform="translate(-43.119 -20.693)" fill="#fff"/>
      <path id="Path_187" data-name="Path 187" d="M179.172,78.842v2.169h5.614a.271.271,0,0,1,.223.223v1.371a.271.271,0,0,1-.223.224h-7.592a.205.205,0,0,1-.191-.192V73.451a.205.205,0,0,1,.191-.191h7.5a.271.271,0,0,1,.223.224v1.371a.271.271,0,0,1-.223.223h-5.519v1.946h5.04a.27.27,0,0,1,.223.223v1.371a.27.27,0,0,1-.223.223Z" transform="translate(-49.995 -20.692)" fill="#fff"/>
      <path id="Path_188" data-name="Path 188" d="M202.36,78.076a14.144,14.144,0,0,1,.622,1.579h.1a14.14,14.14,0,0,1,.622-1.579l2.217-4.609c.1-.192.144-.207.335-.207h1.914c.1,0,.128.048.128.1a.794.794,0,0,1-.1.239l-4.418,9.234h-1.5l-4.418-9.234a.794.794,0,0,1-.1-.239c0-.047.032-.1.128-.1h1.914c.191,0,.239.016.335.207Z" transform="translate(-55.86 -20.692)" fill="#fff"/>
      <path id="Path_189" data-name="Path 189" d="M225.011,78.842v2.169h5.614a.271.271,0,0,1,.223.223v1.371a.271.271,0,0,1-.223.224h-7.592a.205.205,0,0,1-.191-.192V73.451a.205.205,0,0,1,.191-.191h7.5a.271.271,0,0,1,.224.224v1.371a.271.271,0,0,1-.224.223h-5.518v1.946h5.04a.27.27,0,0,1,.223.223v1.371a.27.27,0,0,1-.223.223Z" transform="translate(-62.942 -20.692)" fill="#fff"/>
      <path id="Path_190" data-name="Path 190" d="M247.131,81.011h4.721a.271.271,0,0,1,.224.223v1.371a.271.271,0,0,1-.224.223h-6.7a.205.205,0,0,1-.191-.192V73.451a.205.205,0,0,1,.191-.191h1.787a.205.205,0,0,1,.191.191Z" transform="translate(-69.19 -20.692)" fill="#fff"/>
      <path id="Path_191" data-name="Path 191" d="M274.705,77.982a5.29,5.29,0,1,1-5.279-4.945,4.979,4.979,0,0,1,5.279,4.945m-8.389,0a3.11,3.11,0,1,0,3.11-3.126,3.01,3.01,0,0,0-3.11,3.126" transform="translate(-74.609 -20.629)" fill="#fff"/>
      <path id="Path_192" data-name="Path 192" d="M290.126,82.83a.205.205,0,0,1-.191-.192V73.452a.205.205,0,0,1,.191-.191h4.083c2.313,0,3.972,1.387,3.972,3.588,0,2.217-1.723,3.525-3.972,3.525H292.1v2.264a.205.205,0,0,1-.191.192Zm1.978-7.751v3.573h1.93a1.8,1.8,0,1,0,0-3.573Z" transform="translate(-81.893 -20.693)" fill="#fff"/>
      <path id="Path_193" data-name="Path 193" d="M323.256,73.26a.205.205,0,0,1,.192.191v9.186a.206.206,0,0,1-.192.192H321.47a.206.206,0,0,1-.191-.192V76.785h-.048a5.185,5.185,0,0,1-.59,1.021l-2.824,3.971-2.839-3.971a5.527,5.527,0,0,1-.574-1.021h-.048v5.852a.206.206,0,0,1-.191.192H312.38a.206.206,0,0,1-.191-.192V73.451a.205.205,0,0,1,.191-.191h1.4a.365.365,0,0,1,.3.159l3.716,5.2h.032l3.716-5.2a.365.365,0,0,1,.3-.159Z" transform="translate(-88.178 -20.692)" fill="#fff"/>
      <path id="Path_194" data-name="Path 194" d="M341.812,78.842v2.169h5.614a.271.271,0,0,1,.223.223v1.371a.271.271,0,0,1-.223.224h-7.592a.205.205,0,0,1-.191-.192V73.451a.205.205,0,0,1,.191-.191h7.5a.271.271,0,0,1,.224.224v1.371a.271.271,0,0,1-.224.223h-5.518v1.946h5.04a.27.27,0,0,1,.223.223v1.371a.27.27,0,0,1-.223.223Z" transform="translate(-95.933 -20.692)" fill="#fff"/>
      <path id="Path_195" data-name="Path 195" d="M369.944,82.829l-4.88-4.976c-.51-.51-1.084-1.228-1.084-1.228h-.048v6.012a.205.205,0,0,1-.191.192h-1.787a.205.205,0,0,1-.191-.192V73.452a.206.206,0,0,1,.191-.192h1.467l4.832,4.912a16.148,16.148,0,0,1,1.117,1.292h.063V73.452a.206.206,0,0,1,.191-.192h1.787a.206.206,0,0,1,.192.192v9.186a.205.205,0,0,1-.192.192Z" transform="translate(-102.181 -20.692)" fill="#fff"/>
      <path id="Path_196" data-name="Path 196" d="M386.106,75.079a.27.27,0,0,1-.223-.223V73.484a.27.27,0,0,1,.223-.223h9.059a.27.27,0,0,1,.222.223v1.371a.27.27,0,0,1-.222.223H391.72v7.559a.206.206,0,0,1-.192.192h-1.786a.206.206,0,0,1-.192-.192V75.079Z" transform="translate(-108.993 -20.693)" fill="#fff"/>
      <path id="Path_197" data-name="Path 197" d="M67.948,0H12.325A12.325,12.325,0,0,0,0,12.325V61.337A12.325,12.325,0,0,0,12.325,73.662H67.948A12.325,12.325,0,0,0,80.272,61.337V12.325A12.325,12.325,0,0,0,67.948,0" transform="translate(0 0)" fill="#981a13"/>
      <path id="Path_198" data-name="Path 198" d="M56.092,18.789h14.6a9.889,9.889,0,0,1,0,19.778h-14.6Z" transform="translate(-15.843 -5.307)" fill="#fff"/>
      <rect id="Rectangle_234" data-name="Rectangle 234" width="21.971" height="48.734" transform="translate(13.689 13.482)" fill="#fff"/>
      <path id="Path_199" data-name="Path 199" d="M84.925,64.976a12.2,12.2,0,0,1-12.2,12.2H56.093V52.781H72.729A12.2,12.2,0,0,1,84.925,64.976Z" transform="translate(-15.844 -14.908)" fill="#fff"/>
    </g>
  </g>
</svg>
